<?xml version="1.0" encoding="utf-8"?>
<!-- Generator: Adobe Illustrator 24.1.1, SVG Export Plug-In . SVG Version: 6.00 Build 0)  -->
<svg version="1.1" id="Слой_1" xmlns="http://www.w3.org/2000/svg" xmlns:xlink="http://www.w3.org/1999/xlink" x="0px" y="0px"
	 viewBox="0 0 1142 596" style="enable-background:new 0 0 1142 596;" xml:space="preserve">
<style type="text/css">
	.st0{opacity:0.7;fill:none;stroke:url(#SVGID_1_);stroke-width:14;enable-background:new    ;}
	.st1{fill:url(#SVGID_2_);fill-opacity:0.2;}
</style>
<linearGradient id="SVGID_1_" gradientUnits="userSpaceOnUse" x1="1088.651" y1="-264.9696" x2="703.6511" y2="958.0304" gradientTransform="matrix(1 0 0 -1 0 598)">
	<stop  offset="0" style="stop-color:#EFAB18"/>
	<stop  offset="1" style="stop-color:#FFF0D0"/>
</linearGradient>
<path class="st0" d="M1541.8-101.4l-1.4-3.6l-3.8-0.7L21.3-394.9L10.3-397l3,10.8C35.5-305.4,48.4-214,61.8-119.6
	C67.9-76,74.2-31.8,81.5,12.3c23,139,56.4,276.3,130.9,384.3C297.8,520.2,475.8,573.7,665,558.5c118.3-0.1,181.2-40,231.7-83.3
	c9.8-8.4,19-16.8,28-25c37.6-34.3,71.2-64.9,124.8-75.6c33.5-6.7,67.4-6.3,102.4-4.6c7.8,0.4,15.8,0.9,23.8,1.3
	c27.4,1.6,55.7,3.3,84.3,2.2c74.9-2.8,153.8-24.2,239.1-111.4c67.2-68.7,77.4-160.1,71.4-233.4c-3-36.7-10.2-69.2-16.6-92.5
	c-3.2-11.6-6.2-21-8.4-27.5c-1.1-3.2-2-5.8-2.7-7.5c-0.3-0.9-0.6-1.5-0.7-2c-0.1-0.2-0.2-0.4-0.2-0.5L1541.8-101.4L1541.8-101.4
	L1541.8-101.4c0,0,0,0-6.5,2.6L1541.8-101.4z"/>
<linearGradient id="SVGID_2_" gradientUnits="userSpaceOnUse" x1="255.7655" y1="-7.5118" x2="907.9355" y2="890.8901" gradientTransform="matrix(1 0 0 -1 0 598)">
	<stop  offset="0" style="stop-color:#CD8BE6"/>
	<stop  offset="1" style="stop-color:#4B95FF"/>
</linearGradient>
<path class="st1" d="M1501.3-108.6c0,0,86,215.3-39.8,343.9c-162.3,165.8-298,80.2-431,106.7S885,519.5,660,519.5
	C478.2,534.2,309.1,482.7,228.5,366C86.3,160.1,100.1-159.3,37-388L1501.3-108.6z"/>
</svg>
